<svg width="16" height="18" viewBox="0 0 16 18" fill="none" xmlns="http://www.w3.org/2000/svg">
<path fill-rule="evenodd" clip-rule="evenodd" d="M11.3333 7.37868C11.3333 10.0103 9.22573 12.1104 6.66667 12.1104C4.1076 12.1104 2 10.0103 2 7.37868C2 4.74708 4.1076 2.64697 6.66667 2.64697C9.22573 2.64697 11.3333 4.74708 11.3333 7.37868ZM10.2973 13.0255C9.25271 13.7117 8.0058 14.1104 6.66667 14.1104C2.98477 14.1104 0 11.0965 0 7.37868C0 3.66086 2.98477 0.646973 6.66667 0.646973C10.3486 0.646973 13.3333 3.66086 13.3333 7.37868C13.3333 9.01823 12.7529 10.5209 11.7881 11.6885L11.8219 11.7226L15.7107 15.6494C16.0994 16.0418 16.0963 16.675 15.7039 17.0636C15.3115 17.4523 14.6783 17.4492 14.2897 17.0568L10.4008 13.1299L10.2973 13.0255Z" fill="#284B8C"/>
</svg>
